<mxfile host="app.diagrams.net" modified="2023-06-29T08:27:39.116Z" agent="Mozilla/5.0 (Windows NT 10.0; Win64; x64) AppleWebKit/537.36 (KHTML, like Gecko) Chrome/114.0.0.0 Safari/537.36" etag="DbUjDc_FuhyK6MyNQyLK" version="21.5.0" type="github">
  <diagram name="第 1 页" id="rXIVJB2eZinE8eT-0o9J">
    <mxGraphModel dx="2062" dy="1815" grid="1" gridSize="10" guides="1" tooltips="1" connect="1" arrows="1" fold="1" page="1" pageScale="1" pageWidth="827" pageHeight="1169" math="0" shadow="0">
      <root>
        <mxCell id="0" />
        <mxCell id="1" parent="0" />
        <mxCell id="u-Sb64uljPnoOOoUgbEI-38" value="" style="rounded=1;whiteSpace=wrap;html=1;fillColor=#ffe6cc;strokeColor=#d79b00;" vertex="1" parent="1">
          <mxGeometry x="870" y="-315" width="240" height="1035" as="geometry" />
        </mxCell>
        <mxCell id="u-Sb64uljPnoOOoUgbEI-37" value="" style="rounded=1;whiteSpace=wrap;html=1;fillColor=#dae8fc;strokeColor=#6c8ebf;" vertex="1" parent="1">
          <mxGeometry x="535" y="-315" width="240" height="1035" as="geometry" />
        </mxCell>
        <mxCell id="u-Sb64uljPnoOOoUgbEI-36" value="" style="rounded=1;whiteSpace=wrap;html=1;fillColor=#d5e8d4;strokeColor=#82b366;" vertex="1" parent="1">
          <mxGeometry x="245" y="-315" width="240" height="1035" as="geometry" />
        </mxCell>
        <mxCell id="u-Sb64uljPnoOOoUgbEI-8" value="" style="edgeStyle=orthogonalEdgeStyle;rounded=0;orthogonalLoop=1;jettySize=auto;html=1;" edge="1" parent="1" source="u-Sb64uljPnoOOoUgbEI-2" target="u-Sb64uljPnoOOoUgbEI-4">
          <mxGeometry relative="1" as="geometry" />
        </mxCell>
        <mxCell id="u-Sb64uljPnoOOoUgbEI-2" value="&lt;font style=&quot;font-size: 16px;&quot;&gt;屏幕交互&lt;/font&gt;" style="rounded=0;whiteSpace=wrap;html=1;" vertex="1" parent="1">
          <mxGeometry x="40" y="270" width="150" height="40" as="geometry" />
        </mxCell>
        <mxCell id="u-Sb64uljPnoOOoUgbEI-3" value="&lt;font style=&quot;font-size: 16px;&quot;&gt;麦克风调用&lt;/font&gt;" style="rounded=0;whiteSpace=wrap;html=1;" vertex="1" parent="1">
          <mxGeometry x="290" y="120" width="150" height="40" as="geometry" />
        </mxCell>
        <mxCell id="u-Sb64uljPnoOOoUgbEI-4" value="&lt;font style=&quot;font-size: 16px;&quot;&gt;摄像头调用&lt;/font&gt;" style="rounded=0;whiteSpace=wrap;html=1;" vertex="1" parent="1">
          <mxGeometry x="290" y="270" width="150" height="40" as="geometry" />
        </mxCell>
        <mxCell id="u-Sb64uljPnoOOoUgbEI-5" value="&lt;span style=&quot;font-size: 16px;&quot;&gt;人像识别跟随引擎&lt;/span&gt;" style="rounded=0;whiteSpace=wrap;html=1;" vertex="1" parent="1">
          <mxGeometry x="920" y="358" width="150" height="40" as="geometry" />
        </mxCell>
        <mxCell id="u-Sb64uljPnoOOoUgbEI-6" value="&lt;span style=&quot;font-size: 16px;&quot;&gt;摄像头调用跟随&lt;/span&gt;" style="rounded=0;whiteSpace=wrap;html=1;" vertex="1" parent="1">
          <mxGeometry x="580" y="460" width="150" height="40" as="geometry" />
        </mxCell>
        <mxCell id="u-Sb64uljPnoOOoUgbEI-7" value="&lt;span style=&quot;font-size: 16px;&quot;&gt;人体感知&lt;/span&gt;" style="rounded=0;whiteSpace=wrap;html=1;" vertex="1" parent="1">
          <mxGeometry x="920" y="270" width="150" height="40" as="geometry" />
        </mxCell>
        <mxCell id="u-Sb64uljPnoOOoUgbEI-10" value="" style="endArrow=none;html=1;rounded=0;exitX=1;exitY=0.5;exitDx=0;exitDy=0;" edge="1" parent="1" source="u-Sb64uljPnoOOoUgbEI-4">
          <mxGeometry width="50" height="50" relative="1" as="geometry">
            <mxPoint x="550" y="270" as="sourcePoint" />
            <mxPoint x="830" y="290" as="targetPoint" />
          </mxGeometry>
        </mxCell>
        <mxCell id="u-Sb64uljPnoOOoUgbEI-13" value="" style="endArrow=classic;html=1;rounded=0;entryX=0;entryY=0.5;entryDx=0;entryDy=0;" edge="1" parent="1" target="u-Sb64uljPnoOOoUgbEI-7">
          <mxGeometry width="50" height="50" relative="1" as="geometry">
            <mxPoint x="830" y="290" as="sourcePoint" />
            <mxPoint x="880" y="190" as="targetPoint" />
          </mxGeometry>
        </mxCell>
        <mxCell id="u-Sb64uljPnoOOoUgbEI-16" value="" style="endArrow=classic;html=1;rounded=0;exitX=0.5;exitY=0;exitDx=0;exitDy=0;entryX=1;entryY=0.5;entryDx=0;entryDy=0;" edge="1" parent="1" source="u-Sb64uljPnoOOoUgbEI-7" target="u-Sb64uljPnoOOoUgbEI-3">
          <mxGeometry width="50" height="50" relative="1" as="geometry">
            <mxPoint x="550" y="270" as="sourcePoint" />
            <mxPoint x="600" y="220" as="targetPoint" />
            <Array as="points">
              <mxPoint x="995" y="140" />
            </Array>
          </mxGeometry>
        </mxCell>
        <mxCell id="u-Sb64uljPnoOOoUgbEI-17" value="有人靠近，调用麦克风" style="text;html=1;strokeColor=none;fillColor=none;align=center;verticalAlign=middle;whiteSpace=wrap;rounded=0;" vertex="1" parent="1">
          <mxGeometry x="615" y="110" width="95" height="30" as="geometry" />
        </mxCell>
        <mxCell id="u-Sb64uljPnoOOoUgbEI-18" value="视频初步处理传输" style="text;html=1;align=center;verticalAlign=middle;resizable=0;points=[];autosize=1;strokeColor=none;fillColor=none;" vertex="1" parent="1">
          <mxGeometry x="585" y="260" width="120" height="30" as="geometry" />
        </mxCell>
        <mxCell id="u-Sb64uljPnoOOoUgbEI-19" value="" style="endArrow=classic;html=1;rounded=0;exitX=0.552;exitY=1.005;exitDx=0;exitDy=0;exitPerimeter=0;entryX=1;entryY=0.5;entryDx=0;entryDy=0;" edge="1" parent="1" source="u-Sb64uljPnoOOoUgbEI-5" target="u-Sb64uljPnoOOoUgbEI-6">
          <mxGeometry width="50" height="50" relative="1" as="geometry">
            <mxPoint x="910" y="500" as="sourcePoint" />
            <mxPoint x="960" y="450" as="targetPoint" />
            <Array as="points">
              <mxPoint x="1003" y="420" />
              <mxPoint x="1003" y="480" />
            </Array>
          </mxGeometry>
        </mxCell>
        <mxCell id="u-Sb64uljPnoOOoUgbEI-20" value="保持人物处于视频正中心" style="text;html=1;align=center;verticalAlign=middle;resizable=0;points=[];autosize=1;strokeColor=none;fillColor=none;" vertex="1" parent="1">
          <mxGeometry x="800" y="398" width="160" height="30" as="geometry" />
        </mxCell>
        <mxCell id="u-Sb64uljPnoOOoUgbEI-21" value="&lt;font style=&quot;font-size: 16px;&quot;&gt;智能宣传&lt;/font&gt;" style="rounded=0;whiteSpace=wrap;html=1;" vertex="1" parent="1">
          <mxGeometry x="-210" y="270" width="150" height="40" as="geometry" />
        </mxCell>
        <mxCell id="u-Sb64uljPnoOOoUgbEI-22" value="" style="endArrow=classic;html=1;rounded=0;exitX=1;exitY=0.5;exitDx=0;exitDy=0;entryX=0;entryY=0.5;entryDx=0;entryDy=0;" edge="1" parent="1" source="u-Sb64uljPnoOOoUgbEI-21" target="u-Sb64uljPnoOOoUgbEI-2">
          <mxGeometry width="50" height="50" relative="1" as="geometry">
            <mxPoint x="-40" y="250" as="sourcePoint" />
            <mxPoint x="10" y="200" as="targetPoint" />
          </mxGeometry>
        </mxCell>
        <mxCell id="u-Sb64uljPnoOOoUgbEI-23" value="&lt;font style=&quot;font-size: 16px;&quot;&gt;语音识别和意图&lt;/font&gt;" style="rounded=0;whiteSpace=wrap;html=1;" vertex="1" parent="1">
          <mxGeometry x="920" y="20" width="150" height="40" as="geometry" />
        </mxCell>
        <mxCell id="u-Sb64uljPnoOOoUgbEI-24" value="" style="endArrow=classic;html=1;rounded=0;exitX=0.5;exitY=0;exitDx=0;exitDy=0;entryX=0;entryY=0.5;entryDx=0;entryDy=0;" edge="1" parent="1" target="u-Sb64uljPnoOOoUgbEI-23">
          <mxGeometry width="50" height="50" relative="1" as="geometry">
            <mxPoint x="360" y="120" as="sourcePoint" />
            <mxPoint x="915" y="40" as="targetPoint" />
            <Array as="points">
              <mxPoint x="360" y="40" />
            </Array>
          </mxGeometry>
        </mxCell>
        <mxCell id="u-Sb64uljPnoOOoUgbEI-25" value="&lt;span style=&quot;font-size: 16px;&quot;&gt;自身应用功能&lt;/span&gt;" style="rounded=0;whiteSpace=wrap;html=1;" vertex="1" parent="1">
          <mxGeometry x="570" y="-60" width="150" height="40" as="geometry" />
        </mxCell>
        <mxCell id="u-Sb64uljPnoOOoUgbEI-26" value="" style="endArrow=classic;html=1;rounded=0;entryX=1;entryY=0.5;entryDx=0;entryDy=0;exitX=0.5;exitY=0;exitDx=0;exitDy=0;" edge="1" parent="1" source="u-Sb64uljPnoOOoUgbEI-23" target="u-Sb64uljPnoOOoUgbEI-25">
          <mxGeometry width="50" height="50" relative="1" as="geometry">
            <mxPoint x="990" y="10" as="sourcePoint" />
            <mxPoint x="1040" y="-30" as="targetPoint" />
            <Array as="points">
              <mxPoint x="995" y="-40" />
            </Array>
          </mxGeometry>
        </mxCell>
        <mxCell id="u-Sb64uljPnoOOoUgbEI-27" value="打开应用，进行相关操作" style="text;html=1;align=center;verticalAlign=middle;resizable=0;points=[];autosize=1;strokeColor=none;fillColor=none;" vertex="1" parent="1">
          <mxGeometry x="780" y="-72" width="160" height="30" as="geometry" />
        </mxCell>
        <mxCell id="u-Sb64uljPnoOOoUgbEI-28" value="" style="endArrow=classic;html=1;rounded=0;exitX=0.5;exitY=1;exitDx=0;exitDy=0;entryX=0.5;entryY=0;entryDx=0;entryDy=0;" edge="1" parent="1" source="u-Sb64uljPnoOOoUgbEI-7" target="u-Sb64uljPnoOOoUgbEI-5">
          <mxGeometry width="50" height="50" relative="1" as="geometry">
            <mxPoint x="820" y="380" as="sourcePoint" />
            <mxPoint x="870" y="330" as="targetPoint" />
          </mxGeometry>
        </mxCell>
        <mxCell id="u-Sb64uljPnoOOoUgbEI-29" value="&lt;span style=&quot;font-size: 16px;&quot;&gt;天气问答&lt;/span&gt;" style="rounded=0;whiteSpace=wrap;html=1;" vertex="1" parent="1">
          <mxGeometry x="570" y="-150" width="150" height="40" as="geometry" />
        </mxCell>
        <mxCell id="u-Sb64uljPnoOOoUgbEI-30" value="" style="endArrow=none;html=1;rounded=0;exitX=0.5;exitY=0;exitDx=0;exitDy=0;entryX=0.5;entryY=1;entryDx=0;entryDy=0;" edge="1" parent="1" source="u-Sb64uljPnoOOoUgbEI-25" target="u-Sb64uljPnoOOoUgbEI-29">
          <mxGeometry width="50" height="50" relative="1" as="geometry">
            <mxPoint x="600" y="-60" as="sourcePoint" />
            <mxPoint x="650" y="-110" as="targetPoint" />
          </mxGeometry>
        </mxCell>
        <mxCell id="u-Sb64uljPnoOOoUgbEI-34" value="" style="endArrow=none;html=1;rounded=0;exitX=0.5;exitY=0;exitDx=0;exitDy=0;entryX=0.5;entryY=1;entryDx=0;entryDy=0;" edge="1" target="u-Sb64uljPnoOOoUgbEI-35" parent="1">
          <mxGeometry width="50" height="50" relative="1" as="geometry">
            <mxPoint x="645" y="-150" as="sourcePoint" />
            <mxPoint x="650" y="-200" as="targetPoint" />
          </mxGeometry>
        </mxCell>
        <mxCell id="u-Sb64uljPnoOOoUgbEI-35" value="&lt;font style=&quot;font-size: 16px;&quot;&gt;业务流程指引&lt;/font&gt;" style="rounded=0;whiteSpace=wrap;html=1;" vertex="1" parent="1">
          <mxGeometry x="570" y="-240" width="150" height="40" as="geometry" />
        </mxCell>
        <mxCell id="u-Sb64uljPnoOOoUgbEI-39" value="&lt;span style=&quot;font-size: 16px;&quot;&gt;管理员后台&lt;/span&gt;" style="rounded=0;whiteSpace=wrap;html=1;" vertex="1" parent="1">
          <mxGeometry x="580" y="570" width="150" height="40" as="geometry" />
        </mxCell>
        <mxCell id="u-Sb64uljPnoOOoUgbEI-40" value="" style="endArrow=classic;html=1;rounded=0;entryX=0.5;entryY=1;entryDx=0;entryDy=0;exitX=0;exitY=0.5;exitDx=0;exitDy=0;" edge="1" parent="1" source="u-Sb64uljPnoOOoUgbEI-39" target="u-Sb64uljPnoOOoUgbEI-21">
          <mxGeometry width="50" height="50" relative="1" as="geometry">
            <mxPoint x="-190" y="440" as="sourcePoint" />
            <mxPoint x="-140" y="390" as="targetPoint" />
            <Array as="points">
              <mxPoint x="-135" y="590" />
            </Array>
          </mxGeometry>
        </mxCell>
        <mxCell id="u-Sb64uljPnoOOoUgbEI-41" value="&lt;span style=&quot;font-size: 16px;&quot;&gt;语音合成&lt;/span&gt;" style="rounded=0;whiteSpace=wrap;html=1;" vertex="1" parent="1">
          <mxGeometry x="920" y="-150" width="150" height="40" as="geometry" />
        </mxCell>
        <mxCell id="u-Sb64uljPnoOOoUgbEI-42" value="" style="endArrow=classic;html=1;rounded=0;exitX=1;exitY=0.5;exitDx=0;exitDy=0;entryX=0;entryY=0.5;entryDx=0;entryDy=0;" edge="1" parent="1" source="u-Sb64uljPnoOOoUgbEI-29" target="u-Sb64uljPnoOOoUgbEI-41">
          <mxGeometry width="50" height="50" relative="1" as="geometry">
            <mxPoint x="830" y="-120" as="sourcePoint" />
            <mxPoint x="880" y="-170" as="targetPoint" />
          </mxGeometry>
        </mxCell>
        <mxCell id="u-Sb64uljPnoOOoUgbEI-43" value="&lt;span style=&quot;font-size: 16px;&quot;&gt;扬声器调用&lt;/span&gt;" style="rounded=0;whiteSpace=wrap;html=1;" vertex="1" parent="1">
          <mxGeometry x="290" y="-200" width="150" height="40" as="geometry" />
        </mxCell>
        <mxCell id="u-Sb64uljPnoOOoUgbEI-44" value="" style="endArrow=classic;html=1;rounded=0;entryX=1;entryY=0.5;entryDx=0;entryDy=0;" edge="1" parent="1" target="u-Sb64uljPnoOOoUgbEI-43">
          <mxGeometry width="50" height="50" relative="1" as="geometry">
            <mxPoint x="990" y="-150" as="sourcePoint" />
            <mxPoint x="1040" y="-200" as="targetPoint" />
            <Array as="points">
              <mxPoint x="990" y="-180" />
            </Array>
          </mxGeometry>
        </mxCell>
      </root>
    </mxGraphModel>
  </diagram>
</mxfile>
